<svg xmlns="http://www.w3.org/2000/svg" width="176" height="40" viewBox="0 0 176 40">
  <metadata><?xpacket begin="﻿" id="W5M0MpCehiHzreSzNTczkc9d"?>
<x:xmpmeta xmlns:x="adobe:ns:meta/" x:xmptk="Adobe XMP Core 5.6-c138 79.159824, 2016/09/14-01:09:01        ">
   <rdf:RDF xmlns:rdf="http://www.w3.org/1999/02/22-rdf-syntax-ns#">
      <rdf:Description rdf:about=""/>
   </rdf:RDF>
</x:xmpmeta>
                                                                                                    
                                                                                                    
                                                                                                    
                                                                                                    
                                                                                                    
                                                                                                    
                                                                                                    
                                                                                                    
                                                                                                    
                                                                                                    
                                                                                                    
                                                                                                    
                                                                                                    
                                                                                                    
                                                                                                    
                                                                                                    
                                                                                                    
                                                                                                    
                                                                                                    
                                                                                                    
                           
<?xpacket end="w"?></metadata>
<defs>
    <style>
      .cls-1 {
        fill: #e50914;
        fill-rule: evenodd;
      }
    </style>
  </defs>
  <path id="imagiflix" class="cls-1" d="M62,68q3.13-.417,6.26-0.809c0.005-12.79.01-25.574,0.011-38.737H62V68h0ZM82.869,28.448H74.148c0,13.146-.01,25.581-0.02,38.026q2.732-.321,5.464-0.62c0.009-8.588.019-17.169,0.024-26.1,1.553,8.917,3.1,17.353,4.643,25.6q2.96-.306,5.92-0.588c1.457-8.475,2.916-16.763,4.368-25.576C94.54,48,94.523,56.177,94.507,64.37q2.961-.264,5.921-0.5c0.026-11.182.053-22.336,0.054-35.421H91.761c-1.426,9.3-2.862,17.833-4.3,26.337-1.525-8.32-3.056-17.013-4.594-26.337h0Zm37.8,0H111.49C109.36,41.5,107.2,52.33,105.047,63.511q2.876-.212,5.752-0.4c0.366-1.986.733-3.964,1.1-5.949q3.846-.181,7.691-0.33c0.355,1.916.709,3.813,1.064,5.706q3.16-.16,6.323-0.29c-2.09-10.3-4.183-20.736-6.309-33.8h0Zm-4.906,6.726c1,6.207,2,11.884,2.986,17.325q-3.02.089-6.039,0.194C113.729,47.105,114.748,41.383,115.761,35.172Zm24.784,13.8,2.85-.022c-0.006,1.962-.013,3.883-0.02,5.783-0.008,2.206-1.265,3-3.259,3.036s-3.246-.726-3.238-2.947c0.02-5.6.038-11.382,0.047-17.8,0-2.554,1.258-3.589,3.253-3.583s3.248,1.024,3.245,3.572q0,1.905-.007,3.738,2.964-.008,5.928-0.01,0-1.66.006-3.378c0.009-5.674-3.185-9.391-9.341-9.367-6.156-.022-9.347,3.686-9.355,9.4-0.008,6.179-.025,11.795-0.043,17.24-0.017,5.026,3.163,7.691,9.317,7.557s9.358-2.882,9.376-7.811c0.012-3.265.023-6.6,0.032-10.091q-4.389.007-8.778,0.03c0,1.58-.008,3.127-0.013,4.65h0Zm10.894,12.739q3.135-.007,6.27.018c0.04-10.148.08-20.252,0.082-33.286h-6.27c0,13.034-.042,23.13-0.082,33.269h0ZM170,33.87q5.158,0.005,10.317.014,0-2.646,0-5.438H163.729c0,13.037-.042,23.178-0.081,33.363q3.135,0.056,6.272.145c0.016-4.234.032-8.46,0.045-12.882q4.047,0.05,8.1.123c0-1.547.008-3.115,0.012-4.714q-4.049-.046-8.095-0.076C169.986,41.06,169.992,37.575,170,33.87ZM184,62.523q8.3,0.436,16.6,1.115,0.006-2.372.012-4.749-5.163-.336-10.325-0.6c0.027-9.211.052-18.651,0.053-29.847h-6.27c0,13.053-.037,23.546-0.071,34.076h0Zm20.365,1.437q3.138,0.279,6.278.593c0.021-11.514.043-23,.044-36.105h-6.27C204.42,41.534,204.394,52.733,204.369,63.96Zm27.365-35.51c-1.615,4.852-3.231,9.632-4.849,14.272-1.575-4.723-3.15-9.433-4.727-14.272h-6.5c2.185,6.367,4.365,12.432,6.546,18.536-2.343,6.288-4.691,12.26-7.041,18.041q2.94,0.319,5.88.671c1.738-4.567,3.474-9.25,5.208-14.095,1.707,5.043,3.416,10.16,5.127,15.431Q234.692,67.492,238,68c-2.341-7.139-4.679-13.972-7.015-20.655,2.189-6.123,4.374-12.484,6.559-18.89h-5.814Z" transform="translate(-62 -28)"/>
</svg>
